<svg width="483" height="202" viewBox="0 0 483 202" fill="none" xmlns="http://www.w3.org/2000/svg">
<mask id="mask0_1061_675" style="mask-type:alpha" maskUnits="userSpaceOnUse" x="0" y="0" width="483" height="202">
<rect width="483" height="202" fill="#D9D9D9"/>
</mask>
<g mask="url(#mask0_1061_675)">
<path d="M-40.4254 225.306C-63.7587 168.472 -49.3582 50.7987 58.1356 79.8057C147.075 103.806 198.462 206.849 262.135 128.806C315.575 63.3059 212.075 44.306 217.635 103.806C224.889 181.418 355.136 220.306 506.636 157.806" stroke="#B8B8B8" stroke-width="2" stroke-dasharray="6 6"/>
<path d="M264.93 24.6233C264.93 34.3684 247.465 57.7771 247.465 57.7771C247.465 57.7771 230 34.3684 230 24.6233C230 14.8781 237.807 7 247.445 7C257.082 7 264.91 14.8987 264.91 24.6233H264.93Z" stroke="#93288E" stroke-width="1.5" stroke-linecap="round" stroke-linejoin="round"/>
<path d="M255.232 23.8642C255.232 28.193 251.755 31.7013 247.465 31.7013C243.175 31.7013 239.698 28.193 239.698 23.8642C239.698 19.5353 243.175 16.027 247.465 16.027C251.755 16.027 255.232 19.5353 255.232 23.8642Z" stroke="#93288E" stroke-width="1.5" stroke-linecap="round" stroke-linejoin="round"/>
<path d="M252.202 66.6811C252.202 69.3277 250.088 71.4613 247.465 71.4613C244.842 71.4613 242.728 69.3277 242.728 66.6811C242.728 64.0345 244.842 61.9009 247.465 61.9009C250.088 61.9009 252.202 64.0345 252.202 66.6811Z" fill="#93288E"/>
</g>
</svg>
