<svg xmlns="http://www.w3.org/2000/svg" width="1920.002" height="129.385" viewBox="0 0 1920.002 129.385">
  <g id="footer-wave-desktop" transform="translate(-982.289 3562.95)">
    <g id="Group_22698" data-name="Group 22698" transform="translate(982.292 -3562.913)">
      <path id="Path_16096" data-name="Path 16096" d="M982.294-3511.99s73.253,2.7,125.686-50.892c14.65,10.8,139.951,98.7,216.674,47.036,13.879,10.024,76.915,60.24,159.035,41.2-48,16.919-110.071,22.218-213.4-10.939-90.705-29.107-213.148-15.085-288,19.663Z" transform="translate(-982.294 3562.882)" fill="#172c48"/>
      <path id="Path_16097" data-name="Path 16097" d="M1287.235-3532.708s87.325,49.156,160.192-10.409c15.615,10.409,59.566,57.832,126.65,48-9.253,5.783-55.518,14.458-112.192-17.928C1450.9-3505.527,1409.259-3469.672,1287.235-3532.708Z" transform="translate(-1120.682 3553.913)" fill="#172c48"/>
      <path id="Path_16098" data-name="Path 16098" d="M1633.118-3517.765s56.288,35.855,117.975-3.47c4.626,2.313,12.723,18.506,45.879,11.181C1781.55-3500.8,1699.816-3463.79,1633.118-3517.765Z" transform="translate(-1277.649 3543.982)" fill="#172c48"/>
      <path id="Path_16099" data-name="Path 16099" d="M1676.882-3498.516s81.542,32.983,204.144-64.366c21.4,16,144.578,102.168,215.709,47.229,11.567,8.1,68.241,55.228,160,41.012-28.145,5.832-101.818,28.386-196.433-5.734s-157.3-35.124-203.565-18.14S1771.34-3459.211,1676.882-3498.516Z" transform="translate(-1297.511 3562.882)" fill="#172c48"/>
      <path id="Path_16100" data-name="Path 16100" d="M2125.118-3532.643s79.421,47.807,160.77-11.181c14.65,12.338,52.434,55.9,125.686,48.964-9.638,3.084-68.24,12.723-110.264-19.278C2289.743-3506.812,2243.864-3469.8,2125.118-3532.643Z" transform="translate(-1500.928 3554.233)" fill="#172c48"/>
      <path id="Path_16101" data-name="Path 16101" d="M2468.882-3519.948s62.458,37.783,118.361-2.7c4.627,2.7,16.964,20.048,47.036,11.566C2626.568-3506.069,2534.038-3461.731,2468.882-3519.948Z" transform="translate(-1656.934 3544.622)" fill="#172c48"/>
      <path id="Path_16102" data-name="Path 16102" d="M2814.162-3469.547c-8.482,4.626-82.222,37.906-148.267,9.788h0c-66.055,28.145-139.822-5.123-148.3-9.75,67.224,19.788,146.219-28.778,148.267-30.045h0S2746.052-3449.5,2814.162-3469.547Z" transform="translate(-1679.039 3534.151)" fill="#172c48"/>
    </g>
    <line id="Line_135" data-name="Line 135" y1="25.447" transform="translate(2902.29 -3459.05)" fill="#fff"/>
    <path id="Path_16103" data-name="Path 16103" d="M2902.284-3408.836v25.447l-933.136.082v.038H982.29v-25.447s118.991-57.78,256.241-28.477c60.288,14.474,75.2,24.5,127.758,30.023,73.243,7.7,100.492-6.363,117.4-11.956,59.053-19.532,113.737-62.6,270.458-1.152,77.864,26.981,153.412,18.122,214.967-9.236a293.337,293.337,0,0,0,119.133,25.534,291.749,291.749,0,0,0,95.872-16.336c156.721-61.451,211.405-18.379,270.458,1.158,16.9,5.593,44.154,19.651,117.4,11.95,52.559-5.528,67.469-15.55,127.757-30.024C2836.977-3466.534,2902.284-3408.836,2902.284-3408.836Z" transform="translate(0 -50.296)" fill="#172c48"/>
    <path id="Path_16104" data-name="Path 16104" d="M982.294-3372.647" transform="translate(-0.002 -86.363)" fill="#172c48"/>
    <g id="Group_22699" data-name="Group 22699" transform="translate(1978.621 -3562.95)">
      <path id="Path_16105" data-name="Path 16105" d="M4125.585-3465.987v-.087c-52.045-40.745-143.607-48.682-234.312-19.575-103.327,33.158-165.4,27.861-213.394,10.94,82.119,19.035,145.154-31.182,159.032-41.2,76.722,51.663,202.022-36.239,216.676-47.037,15.392,44.7,72.008,50.762,72.008,50.762l-.011,46.114Z" transform="translate(-3201.927 3562.95)" fill="#172c48"/>
      <path id="Path_16106" data-name="Path 16106" d="M4052.6-3532.774s-87.325,49.156-160.192-10.41c-15.615,10.41-59.566,57.832-126.65,48,9.253,5.783,55.518,14.458,112.192-17.928C3888.938-3505.594,3930.575-3469.738,4052.6-3532.774Z" transform="translate(-3241.808 3553.98)" fill="#172c48"/>
      <path id="Path_16107" data-name="Path 16107" d="M3808.906-3517.832s-56.289,35.856-117.975-3.469c-4.626,2.313-12.723,18.505-45.879,11.18C3660.473-3500.868,3742.208-3463.856,3808.906-3517.832Z" transform="translate(-3187.029 3544.049)" fill="#172c48"/>
      <path id="Path_16108" data-name="Path 16108" d="M3419.493-3498.583s-81.542,32.984-204.144-64.366c-21.4,16-144.578,102.168-215.709,47.229-11.567,8.1-68.24,56.147-160,41.931,28.144,5.832,101.818,27.466,196.433-6.655s157.3-35.123,203.565-18.14S3325.036-3459.278,3419.493-3498.583Z" transform="translate(-2821.52 3562.95)" fill="#172c48"/>
      <path id="Path_16109" data-name="Path 16109" d="M3215.037-3532.709s-79.421,47.807-160.77-11.181c-14.65,12.338-52.434,55.9-125.686,48.963,9.639,3.084,68.241,12.723,110.264-19.277C3050.412-3506.878,3096.291-3469.866,3215.037-3532.709Z" transform="translate(-2861.882 3554.3)" fill="#172c48"/>
      <path id="Path_16110" data-name="Path 16110" d="M2971.86-3520.014s-62.458,37.783-118.361-2.7c-4.627,2.7-16.964,20.048-47.036,11.566C2814.174-3506.135,2906.7-3461.8,2971.86-3520.014Z" transform="translate(-2806.463 3544.689)" fill="#172c48"/>
    </g>
    <path id="Path_16111" data-name="Path 16111" d="M2816.176-3372.647" transform="translate(-832.25 -86.363)" fill="#172c48"/>
    <path id="Path_16112" data-name="Path 16112" d="M4497.6-3372.872" transform="translate(-1595.311 -86.261)" fill="#172c48"/>
  </g>
</svg>
